# xmcd
# Copyright (C) 1995-1998 Ti Kan
#
# Track frame offsets:
#       150
#       10228
#       19735
#       23670
#       36704
#       42037
#       51716
#       67350
#       77715
#       83022
#       93432
#       105313
#       116124
#       122728
#       132321
#       140666
#       148005
#       154525
#       165184
#       176148
#
# Disc length: 2498 seconds
#
# Revision: 2
# Processed by: cddbd v1.5.1PL2 Copyright (c) Steve Scherf et al.
# Submitted via: CD-Transfer v1.0
#
DISCID=1409c014
DTITLE=Lama - It's Showtime
DYEAR=2006
DGENRE=
TTITLE0=Showtime
TTITLE1=Reservoir Dogs
TTITLE2=Reggea Soul
TTITLE3=Sloppy Sunday Morning
TTITLE4=M.s. (Martin Schmutz)
TTITLE5=Triple Trophy
TTITLE6=It's Goes
TTITLE7=What I'm Supposed To Do
TTITLE8=Bush
TTITLE9=Rude Boy
TTITLE10=No Weed
TTITLE11=This Is My Family
TTITLE12=Chicken Run
TTITLE13=I Go Slow
TTITLE14=For Christine
TTITLE15=Alright
TTITLE16=Beer Did Take My Life Away
TTITLE17=I've Got You Baby
TTITLE18=Happy And Free (Featuring Linse)
TTITLE19=Beauty Spot
EXTD=
EXTT0=
EXTT1=
EXTT2=
EXTT3=
EXTT4=
EXTT5=
EXTT6=
EXTT7=
EXTT8=
EXTT9=
EXTT10=
EXTT11=
EXTT12=
EXTT13=
EXTT14=
EXTT15=
EXTT16=
EXTT17=
EXTT18=
EXTT19=
PLAYORDER=
